<?xml version="1.0" encoding="utf-8"?>
<!-- Generator: Adobe Illustrator 16.2.1, SVG Export Plug-In . SVG Version: 6.00 Build 0)  -->
<!DOCTYPE svg PUBLIC "-//W3C//DTD SVG 1.1//EN" "http://www.w3.org/Graphics/SVG/1.1/DTD/svg11.dtd">
<svg version="1.1" id="Layer_1" xmlns="http://www.w3.org/2000/svg" xmlns:xlink="http://www.w3.org/1999/xlink" x="0px" y="0px"
	 width="22.407px" height="15.191px" viewBox="0 0 22.407 15.191" enable-background="new 0 0 22.407 15.191" xml:space="preserve">
<path display="none" fill="#FFFFFF" d="M20.059,2.993H4.988V0h15.07V2.993z M22.407,6.099H4.988v2.993h17.419V6.099z M18.036,12.198
	H4.988v2.993h13.048V12.198z M1.497,0C0.67,0,0,0.67,0,1.497c0,0.826,0.67,1.496,1.497,1.496c0.826,0,1.497-0.67,1.497-1.496
	C2.993,0.67,2.323,0,1.497,0z M1.497,6.099C0.67,6.099,0,6.769,0,7.596c0,0.826,0.67,1.496,1.497,1.496
	c0.826,0,1.497-0.67,1.497-1.496C2.993,6.769,2.323,6.099,1.497,6.099z M1.497,12.198C0.67,12.198,0,12.868,0,13.695
	c0,0.826,0.67,1.496,1.497,1.496c0.826,0,1.497-0.67,1.497-1.496C2.993,12.868,2.323,12.198,1.497,12.198z"/>
<g>
	<path fill="#FFFFFF" d="M18.782,14.859c0,0.175-0.141,0.315-0.316,0.315H3.94c-0.175,0-0.315-0.141-0.315-0.315v-0.632
		c0-3.158,5.684-2.527,5.684-5.053c0,0-1.895-1.893-1.895-5.368c0-2.087,1.702-3.789,3.789-3.789s3.789,1.701,3.789,3.789
		c0,3.475-1.895,5.368-1.895,5.368c0,2.526,5.686,1.895,5.686,5.053V14.859z"/>
</g>
</svg>
