<?xml version="1.0" encoding="utf-8"?>
<!-- Generator: Adobe Illustrator 16.2.1, SVG Export Plug-In . SVG Version: 6.00 Build 0)  -->
<!DOCTYPE svg PUBLIC "-//W3C//DTD SVG 1.1//EN" "http://www.w3.org/Graphics/SVG/1.1/DTD/svg11.dtd">
<svg version="1.1" id="Layer_1" xmlns="http://www.w3.org/2000/svg" xmlns:xlink="http://www.w3.org/1999/xlink" x="0px" y="0px"
	 width="388.359px" height="27.596px" viewBox="0 0 388.359 27.596" enable-background="new 0 0 388.359 27.596"
	 xml:space="preserve">
<path fill="#FFFFFF" d="M23.756,22.945l-0.074,0.17c-0.645,0.611-1.323,1.189-2.014,1.716c-0.726,0.56-1.534,1.053-2.399,1.47
	c-0.84,0.402-1.745,0.713-2.767,0.952c-0.991,0.228-2.081,0.343-3.237,0.343c-1.892,0-3.674-0.357-5.298-1.065
	c-1.619-0.71-3.036-1.689-4.213-2.917c-1.176-1.225-2.106-2.693-2.763-4.367C0.333,17.582,0,15.774,0,13.875v-0.078
	c0-1.875,0.339-3.672,1.011-5.338c0.668-1.668,1.603-3.146,2.78-4.401c1.178-1.249,2.594-2.249,4.212-2.974
	C9.622,0.365,11.418,0,13.339,0c1.198,0,2.288,0.102,3.241,0.304c0.956,0.2,1.86,0.493,2.688,0.875
	c0.817,0.376,1.599,0.832,2.326,1.354c0.656,0.475,1.306,1.002,1.933,1.565l0.08,0.169l-0.068,0.172l-1.077,1.108L22.292,5.62
	L22.13,5.555c-0.536-0.5-1.094-0.971-1.661-1.4c-0.63-0.479-1.316-0.895-2.041-1.241c-0.712-0.337-1.485-0.606-2.361-0.819
	c-0.854-0.202-1.785-0.304-2.766-0.304c-1.594,0-3.095,0.308-4.458,0.915c-1.372,0.611-2.57,1.464-3.562,2.533
	c-1,1.076-1.796,2.354-2.366,3.793c-0.569,1.443-0.857,3.022-0.857,4.689v0.076c0,1.67,0.295,3.254,0.875,4.708
	c0.583,1.451,1.384,2.735,2.381,3.813c1.006,1.078,2.205,1.937,3.565,2.552c1.37,0.621,2.87,0.934,4.46,0.934
	c1.922,0,3.615-0.359,5.031-1.069c1.356-0.672,2.7-1.654,3.996-2.922l0.166-0.068l0.165,0.066l0.989,0.962L23.756,22.945z
	 M121.286,27.005l-0.213,0.133h-1.917l-0.187-0.093l-8.395-10.917l-0.089-0.044h-0.019h-8.656V26.9c0,0.13-0.106,0.237-0.237,0.237
	h-1.504c-0.131,0-0.237-0.107-0.237-0.237V0.695c0-0.132,0.106-0.237,0.237-0.237h10.967c1.639,0,3.113,0.235,4.383,0.702
	c1.266,0.471,2.317,1.117,3.125,1.925c0.632,0.632,1.132,1.383,1.487,2.229c0.355,0.851,0.535,1.766,0.535,2.726v0.077
	c0,1.114-0.199,2.122-0.592,2.995c-0.388,0.867-0.94,1.63-1.639,2.266c-0.7,0.638-1.534,1.154-2.477,1.54
	c-0.93,0.388-1.954,0.66-3.043,0.815l-0.028,0.022l0.004,0.037l8.47,10.962L121.286,27.005z M117.991,10.754
	c0.393-0.746,0.592-1.615,0.592-2.579V8.098c0-1.8-0.674-3.241-2-4.28c-1.331-1.042-3.235-1.569-5.659-1.569h-9.114l0.001,12.045
	h8.997c1.112,0,2.156-0.141,3.104-0.418c0.944-0.278,1.771-0.684,2.46-1.208C117.05,12.153,117.593,11.511,117.991,10.754z
	 M165.385,25.347h-16.955V14.598h15.046c0.132,0,0.237-0.107,0.237-0.237v-1.317c0-0.13-0.105-0.237-0.237-0.237h-15.046V2.248
	h13.102c0.132,0,0.237-0.105,0.237-0.237V0.695c0-0.132-0.105-0.237-0.237-0.237h-14.847c-0.132,0-0.237,0.105-0.237,0.237V26.9
	c0,0.13,0.105,0.237,0.237,0.237h18.7c0.131,0,0.237-0.107,0.237-0.237v-1.316C165.622,25.454,165.517,25.347,165.385,25.347z
	 M242.658,19.797v0.076c0,1.109-0.231,2.127-0.688,3.023c-0.454,0.896-1.106,1.664-1.94,2.281c-0.831,0.619-1.843,1.104-3.005,1.445
	c-1.151,0.341-2.469,0.515-3.918,0.515h-11.33c-0.131,0-0.237-0.107-0.237-0.237V0.695c0-0.132,0.106-0.237,0.237-0.237h10.756
	c1.526,0,2.89,0.211,4.053,0.63c1.176,0.419,2.142,1.002,2.872,1.738c1.136,1.141,1.712,2.553,1.712,4.198v0.076
	c0,0.911-0.134,1.722-0.4,2.407c-0.262,0.684-0.613,1.287-1.045,1.797c-0.44,0.514-0.934,0.943-1.466,1.28
	c-0.527,0.332-1.07,0.619-1.613,0.856c0.77,0.198,1.537,0.473,2.282,0.818c0.741,0.345,1.388,0.78,1.922,1.296
	c0.544,0.519,0.984,1.132,1.311,1.823C242.49,18.075,242.658,18.889,242.658,19.797z M238.674,9.657
	c0.342-0.694,0.516-1.495,0.516-2.379V7.202c0-1.477-0.578-2.685-1.717-3.591c-1.136-0.904-2.804-1.363-4.956-1.363h-8.996
	l0.001,10.558h8.807c0.983,0,1.907-0.12,2.744-0.361c0.839-0.245,1.569-0.603,2.171-1.058
	C237.852,10.927,238.333,10.345,238.674,9.657z M223.521,14.598l0.001,10.749h9.683c2.274,0,4.108-0.495,5.449-1.474
	c1.342-0.973,2.021-2.316,2.021-3.995v-0.077c0-1.651-0.699-2.946-2.078-3.847c-1.38-0.901-3.412-1.356-6.043-1.356H223.521z
	 M292.437,26.801l-0.015,0.228l-0.2,0.109h-1.649c-0.093,0-0.179-0.056-0.216-0.139l-3.332-7.332H271.28l-3.326,7.332
	c-0.038,0.083-0.123,0.139-0.216,0.139h-1.537l-0.2-0.109l-0.015-0.228l12.209-26.396c0.039-0.086,0.122-0.14,0.215-0.14h1.603
	c0.093,0,0.177,0.054,0.215,0.14L292.437,26.801z M279.17,2.437l-7.025,15.383l0.003,0.037l0.033,0.019h13.944l0.032-0.019
	l0.003-0.037L279.17,2.437z M339.236,0.458h-1.431c-0.131,0-0.237,0.105-0.237,0.237v22.95l-0.034-0.017L319.229,0.547l-0.187-0.089
	h-1.518c-0.131,0-0.237,0.105-0.237,0.237V26.9c0,0.13,0.106,0.237,0.237,0.237h1.433c0.131,0,0.237-0.107,0.237-0.237V3.454
	l0.034,0.017l18.69,23.576l0.187,0.091h1.13c0.131,0,0.237-0.107,0.237-0.237V0.695C339.474,0.563,339.367,0.458,339.236,0.458z
	 M388.329,26.751l-11.842-14.518L387.75,0.861l0.05-0.259c-0.037-0.087-0.123-0.145-0.219-0.145h-2.036l-0.171,0.072l-16.896,17.427
	l-0.059,0.023l-0.018-0.003l0.043-17.282c0-0.132-0.106-0.237-0.237-0.237h-1.509c-0.13,0-0.236,0.105-0.236,0.237V26.9
	c0,0.13,0.106,0.237,0.236,0.237h1.509c0.131,0,0.237-0.107,0.237-0.237v-6.5l0.033-0.079l6.564-6.645l0.031-0.012l0.035,0.017
	l10.877,13.369l0.184,0.087h1.977c0.092,0,0.175-0.054,0.214-0.135L388.329,26.751z M60.615,0.949
	c-7.083,0-12.846,5.764-12.846,12.848c0,7.086,5.763,12.85,12.846,12.85c7.086,0,12.85-5.764,12.85-12.85
	C73.465,6.713,67.701,0.949,60.615,0.949z"/>
</svg>
